<svg width="36" height="36" viewBox="0 0 36 36" fill="none" xmlns="http://www.w3.org/2000/svg">
<g clip-path="url(#clip0_1442_3386)">
<path d="M30.728 5.2721C27.3281 1.87235 22.808 0 18 0V2.10938C26.7621 2.10938 33.8906 9.23787 33.8906 18C33.8906 26.7621 26.7621 33.8906 18 33.8906C9.23787 33.8906 2.10938 26.7621 2.10938 18C2.10938 13.899 3.65273 10.0353 6.46418 7.07154L7.97934 8.5867L7.97822 4.0571L3.44911 4.05654L4.97208 5.57951C1.76252 8.94192 0 13.3355 0 18C0 22.808 1.87235 27.3281 5.27203 30.7279C8.67185 34.1277 13.192 36 18 36C22.808 36 27.3281 34.1277 30.728 30.7279C34.1276 27.3281 36 22.808 36 18C36 13.192 34.1276 8.67185 30.728 5.2721Z" fill="#3CC4E9"/>
<path d="M14.6953 2.8125C13.9199 2.8125 13.2891 2.18166 13.2891 1.40625C13.2891 0.630844 13.9199 0 14.6953 0C15.4707 0 16.1016 0.630844 16.1016 1.40625C16.1016 2.18166 15.4707 2.8125 14.6953 2.8125Z" fill="#3CC4E9"/>
<path d="M10.5469 4.14844C9.77147 4.14844 9.14062 3.51759 9.14062 2.74219C9.14062 1.96678 9.77147 1.33594 10.5469 1.33594C11.3223 1.33594 11.9531 1.96678 11.9531 2.74219C11.9531 3.51759 11.3223 4.14844 10.5469 4.14844Z" fill="#3CC4E9"/>
<path d="M30.728 5.2721C27.3281 1.87235 22.808 0 18 0V2.10938C26.7621 2.10938 33.8906 9.23787 33.8906 18C33.8906 26.7621 26.7621 33.8906 18 33.8906V36C22.808 36 27.3281 34.1277 30.728 30.7279C34.1276 27.3281 36 22.808 36 18C36 13.192 34.1276 8.67185 30.728 5.2721Z" fill="#0096DB"/>
<path d="M17.8238 22.2068V20.4559H14.5452V18.7754L18.4231 13.8633H19.7039V18.7754H20.738V20.4559H19.7039V22.2068H17.8238ZM16.4137 18.7755H18.0353V16.6837L16.4137 18.7755Z" fill="#606060"/>
<path d="M28.8464 15.6025V22.2185H27.166V19.5745H24.1929V22.2185H22.5007V15.6025H24.1929V18.0939H27.166V15.6025H28.8464Z" fill="#606060"/>
<path d="M7.15356 22.2187C7.15356 17.0156 11.2313 18.5742 11.2313 16.4135C11.2313 15.7851 10.7929 15.45 10.2207 15.45C9.28122 15.45 8.44218 16.2687 8.34037 16.3783L7.16524 15.1327C7.29046 14.9839 8.4843 13.7812 10.4792 13.7812C12.457 13.7812 13.37 14.8594 13.37 16.3901C13.37 19.1484 9.79753 19.0078 9.79753 20.5265H13.3817V22.2187H7.15356Z" fill="#888890"/>
<path d="M17.8238 22.2068V20.4559H14.5452V18.7754L18.4231 13.8633H19.7039V18.7754H20.738V20.4559H19.7039V22.2068H17.8238ZM16.4137 18.7755H18.0353V16.6837L16.4137 18.7755Z" fill="#606060"/>
</g>
<defs>
<clipPath id="clip0_1442_3386">
<rect width="36" height="36" fill="white"/>
</clipPath>
</defs>
</svg>
